<?xml version="1.0" encoding="UTF-8" standalone="no"?>
<svg
   xmlns:dc="http://purl.org/dc/elements/1.1/"
   xmlns:cc="http://creativecommons.org/ns#"
   xmlns:rdf="http://www.w3.org/1999/02/22-rdf-syntax-ns#"
   xmlns:svg="http://www.w3.org/2000/svg"
   xmlns="http://www.w3.org/2000/svg"
   xmlns:sodipodi="http://sodipodi.sourceforge.net/DTD/sodipodi-0.dtd"
   xmlns:inkscape="http://www.inkscape.org/namespaces/inkscape"
   version="1.1"
   id="Camada_1"
   x="0px"
   y="0px"
   width="57"
   height="35.206795"
   viewBox="0 0 57.000001 35.206795"
   inkscape:version="0.91 r13725"
   sodipodi:docname="logo.svg">
  <metadata
     id="metadata56">
    <rdf:RDF>
      <cc:Work
         rdf:about="">
        <dc:format>image/svg+xml</dc:format>
        <dc:type
           rdf:resource="http://purl.org/dc/dcmitype/StillImage" />
        <dc:title></dc:title>
      </cc:Work>
    </rdf:RDF>
  </metadata>
  <defs
     id="defs54">
    <defs
       id="defs39">
      <circle
         id="SVGID_3_"
         cx="109.007"
         cy="53.294998"
         r="10.21" />
    </defs>
    <radialGradient
       gradientUnits="userSpaceOnUse"
       r="37.408798"
       cy="35.124001"
       cx="96.451202"
       id="SVGID_1_"
       gradientTransform="translate(-9.629133e-4,-0.08700152)">
      <stop
         id="stop16"
         style="stop-color:#C8AF28"
         offset="0" />
      <stop
         id="stop18"
         style="stop-color:#BD813C"
         offset="1" />
    </radialGradient>
    <linearGradient
       y2="53.857399"
       x2="94.380898"
       y1="53.857399"
       x1="28.7358"
       gradientUnits="userSpaceOnUse"
       id="SVGID_2_"
       gradientTransform="translate(-9.629133e-4,-0.08700152)">
      <stop
         id="stop25"
         style="stop-color:#BD813C"
         offset="0" />
      <stop
         id="stop27"
         style="stop-color:#CAAF3F"
         offset="1" />
    </linearGradient>
  </defs>
  <sodipodi:namedview
     pagecolor="#ffffff"
     bordercolor="#666666"
     borderopacity="1"
     objecttolerance="10"
     gridtolerance="10"
     guidetolerance="10"
     inkscape:pageopacity="0"
     inkscape:pageshadow="2"
     inkscape:window-width="1920"
     inkscape:window-height="1016"
     id="namedview52"
     showgrid="false"
     fit-margin-top="0"
     fit-margin-left="0"
     fit-margin-right="0"
     fit-margin-bottom="0"
     inkscape:zoom="2.5833333"
     inkscape:cx="19.547424"
     inkscape:cy="31.911998"
     inkscape:window-x="0"
     inkscape:window-y="27"
     inkscape:window-maximized="1"
     inkscape:current-layer="Camada_1" />
  <g
     id="g4270"
     transform="matrix(0.55161447,0,0,0.55161447,0,8.4169688e-7)">
    <path
       d="m 14.633037,40.146998 c 0,0 1.584,4.209 4.849,7.205 3.266,2.998 9.514,7.396 16.508,9.266 6.996,1.873 16.23,2.996 22.667,2.9 6.436,-0.092 14.084,-0.746 20.894,-2.432 6.809,-1.684 14.829,-5.238 14.829,-5.238 l -2.705,-1.779 c 0,0 -11.099,4.68 -17.908,5.428 -6.809,0.748 -14.549,2.152 -26.023,0.186 -11.472,-1.963 -18.375,-6.645 -20.521,-9.078 -2.144,-2.432 -3.451,-4.961 -3.451,-4.961 l -0.372,-5.799 -1.307,-4.121 -6.062,6.554 -1.398,1.869 0,0 z"
       id="path11"
       inkscape:connector-curvature="0"
       style="clip-rule:evenodd;fill:#bd813c;fill-rule:evenodd" />
    <path
       d="m 39.068037,6.5529984 c 0,0 -5.782,1.87 -11.098,4.8639996 -5.317,2.997 -9.047,7.02 -11.193,10.203 -2.144,3.181 -3.73,7.205 -3.824,10.949 -0.093,3.744 1.305,6.646 1.305,6.646 l 1.866,-1.123 6.063,-6.644 c 0,0 0.092,-2.902 1.025,-5.429 0.934,-2.527 2.52,-4.586 3.918,-5.428 1.398,-0.845 4.477,-1.405 4.477,-1.405 l 9.514,-9.3579996 -2.053,-3.275 0,0 z"
       id="path13"
       inkscape:connector-curvature="0"
       style="clip-rule:evenodd;fill:#bd813c;fill-rule:evenodd" />
    <path
       d="m 70.344037,3.9589984 c 0,0 3.637,-0.28 9.42,1.032 5.782,1.308 10.446,3.741 13.339,5.8019996 2.891,2.059 6.221,5.491 6.872,6.802 0.655003,1.309 1.101003,4.763 1.194003,8.132 0.093,3.369 -1.482003,7.207 -2.975003,9.451 -1.495,2.248 -4.049,4.719 -5.167,5.281 -1.12,0.559 -3.504,3.424 -2.099,1.561 1.405,-1.861 5.479,-6.898 6.754,-11.091 1.235,-4.075 1.029,-8.774 -1.438,-9.965 l 0.504,-2.245 c 0,0 -1.668,-3.78 -4.094,-5.839 -2.425,-2.062 -5.315,-3.7439996 -8.672,-4.9609996 -3.36,-1.214 -8.21,-1.777 -8.21,-1.777 l -5.428,-2.183 0,0 z"
       id="path20"
       style="clip-rule:evenodd;fill:url(#SVGID_1_);fill-rule:evenodd"
       inkscape:connector-curvature="0" />
    <path
       d="m 57.770037,-1.5258789e-6 c 17.596,0 31.948,14.3369995258789 31.948,31.9119995258789 0,17.577 -14.352,31.913 -31.948,31.913 -17.595,0 -31.945,-14.336 -31.945,-31.913 0,-17.575 14.35,-31.9119995258789 31.945,-31.9119995258789 l 0,0 z"
       id="path22"
       inkscape:connector-curvature="0"
       style="clip-rule:evenodd;fill:#1973b4;fill-rule:evenodd" />
    <path
       d="m 91.675037,50.068998 c 0,0 -11.099,4.68 -17.908,5.428 -6.809,0.748 -14.549,2.152 -26.023,0.186 -9.529,-1.631 -15.895,-5.131 -19.009,-7.666 l 0,5.725 c 2.248,1.168 4.7,2.193 7.255,2.877 6.996,1.873 16.23,2.996 22.667,2.9 6.436,-0.092 14.084,-0.746 20.894,-2.432 6.809,-1.684 14.829,-5.238 14.829,-5.238 l -2.705,-1.78 z"
       id="path29"
       style="clip-rule:evenodd;fill:url(#SVGID_2_);fill-rule:evenodd"
       inkscape:connector-curvature="0" />
    <path
       d="m 97.740037,15.047998 c 2.338003,0 4.530003,-1.862 4.878003,-4.145 0.351,-2.2829996 -1.271,-4.1449996 -3.607003,-4.1449996 -2.34,0 -4.53,1.862 -4.879,4.1449996 -0.351,2.283 1.27,4.145 3.608,4.145 l 0,0 z"
       id="path31"
       inkscape:connector-curvature="0"
       style="clip-rule:evenodd;fill:#e1bd38;fill-rule:evenodd" />
    <path
       d="m 3.7190371,18.811998 14.6429999,-1.778 c 0,0 -0.175,0.474 -0.474,1.289 -1.606,4.38 -6.781,18.503 -7.173,19.767 -0.467,1.496 0.188,2.15 0.933,2.057 0.747,-0.094 1.865,-0.652 3.171,-1.869 1.305,-1.217 3.17,-3.184 4.57,-4.68 1.398,-1.498 4.383,-5.803 4.383,-5.803 l 3.639,-9.544 9.7,-0.096 c 0,0 -7.368,19.842 -7.742,20.871 -0.374,1.027 -0.467,2.432 0.374,2.432 0.84,0 2.333,-1.311 3.357,-2.432 1.026,-1.125 2.612,-3.09 2.612,-3.09 0,0 0.186,-3.182 1.026,-4.866 0.839,-1.685 2.706,-5.053 5.688,-7.298 2.984,-2.245 6.624,-4.4 11.008,-5.43 4.382,-1.029 6.994,-1.308 9.7,-1.121 2.704,0.185 4.849,1.121 6.155,1.871 1.307,0.748 1.864,1.59 2.238,2.06 0.374,0.467 0.84,1.402 0.84,1.402 l 2.519,-4.585 9.887,0 -9.233,21.524 c 0,0 -0.653,1.592 0,2.715 0.653,1.123 1.397,1.965 3.543,1.965 2.146,0 5.878,-1.59 5.878,-1.59 l 1.21,2.713 c 0,0 -3.636,1.498 -6.62,1.684 -2.986,0.188 -5.598,-0.281 -8.115,-1.029 -2.518,-0.746 -3.732,-1.963 -4.479,-2.994 -0.744,-1.029 -0.84,-2.621 -0.84,-2.621 0,0 -2.703,2.9 -6.153,4.4 -3.453,1.496 -5.318,2.154 -9.517,2.059 -4.198,-0.096 -7.461,-1.406 -9.699,-2.621 -2.239,-1.217 -3.172,-2.809 -3.732,-3.744 -0.559,-0.936 -1.026,-2.432 -1.026,-2.432 0,0 -1.864,3.18 -3.823,4.678 -1.959,1.498 -4.571,2.809 -7.183,3.09 -2.611,0.281 -4.104,-0.281 -5.036,-1.029 -0.933,-0.75 -1.213,-2.527 -0.653,-4.588 0.559,-2.057 1.958,-5.895 1.958,-5.895 0,0 -5.409,5.988 -7.835,7.768 -2.423,1.779 -4.7559999,3.93 -8.2059999,3.836 -3.452,-0.093 -4.38300001,-1.873 -4.94300001,-2.715 -0.559,-0.842 -0.186,-2.809 0.56,-4.771 0.74500001,-1.967 4.94300001,-13.01 5.41000001,-14.414 0.466,-1.404 0.466,-3.276 -0.654,-3.556 -1.119,-0.281 -2.146,-0.281 -2.146,-0.281 l 0.28,-1.309 0,0 z m 62.5859999,1.965 c 1.911,0.943 3.173,3.836 2.333,7.112 -0.839,3.274 -3.641,7.86 -5.782,10.483 -2.147,2.617 -4.479,4.211 -6.436,4.771 -1.959,0.561 -4.292,0.936 -6.996,-0.281 -2.705,-1.219 -3.078,-3.648 -1.865,-7.768 1.209,-4.117 4.364,-8.836 6.248,-10.856 2.766,-2.964 8.55,-5.413 12.498,-3.461 l 0,0 z"
       id="path33"
       inkscape:connector-curvature="0"
       style="clip-rule:evenodd;fill:#e1bd38;fill-rule:evenodd" />
    <path
       d="m 89.437037,18.623998 13.896003,-1.778 -9.514003,22.18 c 0,0 -0.653,1.59 0.187,2.246 0.84,0.654 1.493,0.279 2.427,-0.656 0.932,-0.936 3.077,-3.742 3.077,-3.742 l 1.026003,0.561 c 0,0 -2.799003,3.838 -4.104003,5.053 -1.306,1.217 -3.451,2.527 -4.758,3.09 -1.306,0.561 -3.543,0.469 -4.571,0.188 -1.025,-0.281 -2.518,-0.936 -2.61,-2.717 -0.092,-1.775 1.025,-3.928 1.025,-3.928 l 6.996,-16.377 c 0,0 0.747,-1.874 -0.093,-2.434 -0.839,-0.563 -2.985,-0.375 -2.985,-0.375 l 0,-1.311 0.001,0 z"
       id="path35"
       inkscape:connector-curvature="0"
       style="clip-rule:evenodd;fill:#e1bd38;fill-rule:evenodd" />
  </g>
</svg>
